<?xml version="1.0" standalone="no"?>
<!DOCTYPE svg PUBLIC "-//W3C//DTD SVG 20010904//EN"
 "http://www.w3.org/TR/2001/REC-SVG-20010904/DTD/svg10.dtd">
<svg version="1.0" xmlns="http://www.w3.org/2000/svg"
 width="813.000000pt" height="813.000000pt" viewBox="0 0 813.000000 813.000000"
 preserveAspectRatio="xMidYMid meet">
<metadata>
Created by potrace 1.14, written by Peter Selinger 2001-2017
</metadata>
<g transform="translate(0.000000,813.000000) scale(0.100000,-0.100000)"
fill="#000000" stroke="none">
<path d="M3912 7495 c-235 -66 -309 -339 -138 -511 120 -119 311 -117 432 5
146 146 106 391 -79 480 -76 37 -145 45 -215 26z m136 -175 c21 -13 41 -38 54
-67 17 -39 19 -52 9 -84 -16 -52 -72 -99 -117 -99 -52 0 -102 27 -131 72 -37
55 -28 110 26 160 34 32 47 38 83 38 26 0 57 -8 76 -20z"/>
<path d="M3960 7296 c0 -2 7 -7 16 -10 8 -3 12 -2 9 4 -6 10 -25 14 -25 6z"/>
<path d="M3940 7281 c0 -7 -5 -9 -12 -5 -7 4 -10 3 -5 -1 4 -5 18 -10 30 -12
12 -2 18 0 12 5 -5 4 -13 11 -17 16 -5 5 -8 4 -8 -3z"/>
<path d="M3900 7240 c-6 -12 -9 -24 -7 -27 3 -2 11 5 17 17 6 12 9 24 7 27 -3
2 -11 -5 -17 -17z"/>
<path d="M3909 7178 c0 -22 -1 -22 -9 -3 -10 23 -13 5 -4 -19 10 -25 20 -19
22 14 1 17 0 30 -3 30 -3 0 -5 -10 -6 -22z"/>
<path d="M3874 6459 c-153 -71 -586 -272 -864 -402 -372 -173 -612 -283 -650
-297 -34 -12 -38 -11 -84 21 -44 31 -54 34 -120 34 -64 0 -77 -3 -110 -29 -95
-72 -111 -188 -39 -284 17 -22 22 -37 15 -45 -5 -7 -60 -75 -123 -152 -62 -77
-169 -210 -238 -295 -69 -85 -180 -222 -248 -303 -68 -81 -123 -151 -123 -156
0 -4 28 -42 62 -83 153 -181 396 -467 678 -797 168 -196 334 -392 369 -436
l64 -80 -34 -6 c-68 -11 -146 -74 -170 -136 -13 -36 -11 -129 5 -166 32 -75
125 -137 206 -137 43 0 106 24 141 52 32 26 69 91 69 122 1 31 2 30 77 -49 68
-71 143 -157 393 -445 201 -233 450 -518 556 -640 66 -74 155 -177 198 -228
76 -90 79 -93 96 -75 10 10 102 117 206 238 103 121 281 326 394 455 113 129
273 314 355 410 82 96 152 177 155 180 3 3 38 42 79 88 40 45 77 82 81 82 4 0
11 -15 14 -33 3 -19 22 -52 41 -74 94 -110 246 -111 338 -2 70 81 74 172 13
265 -40 60 -95 93 -153 94 -18 0 -33 2 -33 5 0 3 58 72 129 153 125 142 420
487 686 802 72 84 179 210 239 279 60 69 116 134 124 143 13 16 7 26 -59 106
-41 49 -137 167 -214 262 -77 95 -172 212 -212 260 -39 48 -112 138 -162 200
-90 113 -91 114 -72 134 66 73 68 189 4 262 -72 82 -191 89 -282 16 l-36 -29
-280 129 c-154 71 -422 196 -595 277 -306 145 -684 320 -746 347 -28 12 -37 9
-140 -37z m310 -400 c105 -50 253 -121 329 -157 75 -36 137 -69 137 -74 0 -4
-21 -8 -47 -9 -66 0 -126 -12 -130 -25 -5 -14 265 -107 567 -195 41 -11 98
-32 127 -45 29 -12 95 -34 146 -48 50 -13 121 -36 157 -49 l65 -25 -60 -17
c-33 -9 -100 -29 -150 -43 -78 -24 -100 -26 -165 -20 -48 4 -76 3 -79 -4 -2
-5 -25 -39 -52 -74 -44 -57 -46 -63 -23 -54 14 6 108 10 208 10 l183 0 134
-142 c74 -78 151 -157 172 -176 21 -19 35 -37 32 -41 -3 -3 -99 -8 -213 -11
l-207 -5 75 -80 c41 -44 104 -113 139 -153 59 -68 62 -74 48 -95 -8 -12 -51
-103 -96 -202 -46 -99 -90 -188 -99 -197 -12 -12 -48 -21 -115 -29 l-98 -12
-266 -531 c-146 -292 -310 -614 -365 -716 -54 -102 -110 -205 -123 -230 -51
-100 -172 -322 -233 -430 -36 -63 -91 -162 -123 -219 -33 -57 -59 -108 -59
-113 0 -37 -54 44 -172 262 -23 41 -61 111 -86 155 -202 362 -372 685 -742
1406 l-214 417 -66 6 c-141 14 -118 -9 -236 235 -58 119 -106 219 -107 222 -1
3 63 77 142 164 l144 158 -366 -8 c-202 -4 -367 -4 -367 -1 0 19 482 571 504
577 53 16 280 112 361 152 89 44 313 148 655 305 96 44 256 119 355 166 99 47
182 85 184 86 2 0 90 -41 195 -91z m-1893 -1711 c50 -101 138 -271 195 -379
57 -108 104 -198 104 -201 0 -3 -122 76 -270 175 -248 164 -276 185 -327 251
-66 83 -176 209 -247 284 l-50 52 252 0 252 0 91 -182z"/>
<path d="M3879 5688 c-53 -46 -151 -130 -219 -188 l-124 -105 233 -3 c128 -1
334 -1 459 0 l226 3 -66 53 c-37 29 -138 113 -225 187 -87 74 -165 135 -173
135 -8 0 -58 -37 -111 -82z"/>
<path d="M2774 4709 c-82 -89 -150 -165 -152 -170 -2 -5 279 -9 682 -9 l686 0
1 -1172 0 -1173 28 75 c15 41 37 93 49 115 12 22 22 43 22 48 0 27 674 1402
693 1414 20 13 189 194 246 263 58 71 197 225 249 276 32 33 87 136 80 153 -2
5 -72 84 -156 175 l-154 166 -381 0 -382 -1 -146 -79 -147 -80 -148 80 -149
80 -386 0 -386 0 -149 -161z"/>
<path d="M2657 6455 c-50 -17 -76 -41 -98 -90 -23 -51 -23 -89 0 -141 47 -104
173 -132 261 -58 65 55 80 140 39 214 -40 71 -125 102 -202 75z"/>
<path d="M5204 6459 c-41 -12 -82 -54 -106 -107 -17 -38 -18 -49 -8 -94 29
-119 162 -172 263 -104 50 34 77 82 77 138 0 77 -38 131 -112 163 -41 17 -67
18 -114 4z"/>
<path d="M1463 6375 c-115 -58 -177 -157 -177 -285 -1 -124 60 -222 172 -277
114 -56 267 -28 354 63 59 62 83 125 82 219 0 131 -53 218 -166 275 -52 26
-72 30 -138 30 -61 0 -86 -5 -127 -25z m171 -155 c57 -27 99 -93 91 -140 -10
-52 -48 -96 -101 -116 -46 -17 -47 -17 -88 4 -49 26 -96 93 -96 135 0 53 52
116 105 130 36 9 48 7 89 -13z"/>
<path d="M6269 6386 c-127 -45 -203 -154 -203 -293 -1 -265 317 -409 518 -233
65 58 89 112 94 210 4 79 2 93 -23 149 -34 74 -104 142 -172 165 -56 19 -164
20 -214 2z m175 -180 c18 -13 40 -43 51 -65 15 -35 16 -47 6 -81 -22 -74 -105
-123 -168 -99 -94 35 -134 151 -76 220 53 63 125 73 187 25z"/>
<path d="M2160 6198 c-14 -7 -33 -30 -44 -51 -25 -52 -15 -97 31 -137 32 -28
41 -32 80 -27 50 5 80 28 100 75 17 41 5 87 -32 122 -29 27 -99 36 -135 18z"/>
<path d="M5690 6197 c-86 -43 -69 -189 25 -213 71 -18 145 41 145 114 0 82
-94 137 -170 99z"/>
<path d="M1332 5595 c-40 -34 -55 -75 -50 -136 9 -89 88 -143 175 -120 97 26
135 124 83 220 -33 62 -152 83 -208 36z"/>
<path d="M6464 5601 c-37 -22 -64 -76 -64 -126 0 -94 87 -160 178 -136 50 14
101 68 109 114 8 53 -21 124 -61 148 -41 25 -121 25 -162 0z"/>
<path d="M1707 3449 c-152 -36 -187 -246 -55 -332 38 -25 50 -28 108 -25 49 3
74 9 98 27 85 60 97 197 24 274 -49 53 -110 72 -175 56z"/>
<path d="M6195 3455 c-5 -2 -22 -6 -37 -9 -63 -14 -128 -103 -128 -176 0 -51
32 -113 75 -146 48 -36 134 -45 190 -18 44 21 92 83 101 131 13 67 -35 166
-94 197 -30 15 -91 27 -107 21z"/>
<path d="M1489 2506 c-128 -46 -200 -149 -202 -291 -2 -121 64 -229 171 -282
76 -37 181 -39 260 -4 72 32 143 112 167 186 48 153 -40 327 -195 386 -58 22
-148 24 -201 5z m128 -167 c77 -29 130 -128 99 -187 -22 -43 -80 -76 -132 -76
-42 1 -79 19 -69 34 3 4 -3 7 -13 6 -11 -1 -25 15 -39 44 -19 37 -21 51 -13
79 14 50 38 81 73 96 39 17 57 18 94 4z"/>
<path d="M6273 2502 c-92 -33 -157 -99 -196 -200 -20 -49 -22 -138 -6 -193 17
-56 99 -143 167 -176 118 -58 269 -29 357 69 59 65 79 120 79 213 -1 96 -23
154 -82 213 -82 82 -212 112 -319 74z m160 -179 c45 -23 69 -70 64 -127 -4
-43 -10 -55 -45 -88 -36 -33 -48 -38 -88 -38 -43 0 -51 4 -91 45 -38 40 -43
51 -43 91 0 112 100 170 203 117z"/>
<path d="M2631 2158 c-53 -36 -74 -71 -78 -130 -7 -101 64 -178 164 -178 66 0
103 20 140 73 48 69 28 180 -40 229 -22 16 -50 23 -92 26 -50 3 -65 0 -94 -20z"/>
<path d="M5170 2162 c-47 -26 -84 -93 -84 -154 0 -58 41 -123 94 -151 99 -51
239 41 240 158 0 41 -38 114 -72 139 -40 29 -132 33 -178 8z"/>
<path d="M2093 1920 c-40 -13 -79 -60 -94 -112 -39 -147 116 -259 247 -177 43
26 78 99 71 144 -9 52 -36 103 -70 127 -34 24 -105 32 -154 18z"/>
<path d="M5744 1920 c-33 -13 -82 -77 -90 -115 -16 -85 14 -146 89 -184 65
-32 123 -24 178 26 63 57 71 122 27 204 -36 65 -133 98 -204 69z"/>
<path d="M3810 736 c0 -2 8 -10 18 -17 15 -13 16 -12 3 4 -13 16 -21 21 -21
13z"/>
</g>
</svg>
